<svg width="16" height="16" viewBox="0 0 16 16" fill="none" xmlns="http://www.w3.org/2000/svg">
<path d="M7.54316 3.85453L7.99998 4.39097L8.45679 3.85453C9.04423 3.16469 9.94805 2.72793 10.88 2.72793C12.5198 2.72793 13.8 4.0081 13.8 5.64793C13.8 6.66044 13.35 7.62601 12.4355 8.74406C11.5142 9.87052 10.185 11.0773 8.52493 12.5827L8.52407 12.5834L7.99844 13.0619L7.47549 12.5895C7.47527 12.5893 7.47504 12.5891 7.47482 12.5889C5.81493 11.0805 4.48592 9.87227 3.56453 8.74501C2.64992 7.62605 2.19998 6.66045 2.19998 5.64793C2.19998 4.0081 3.48015 2.72793 5.11998 2.72793C6.0519 2.72793 6.95572 3.16469 7.54316 3.85453Z" stroke="#161616" stroke-width="1.2"/>
</svg>
